<?xml version="1.0" standalone="no"?><!DOCTYPE svg PUBLIC "-//W3C//DTD SVG 1.1//EN" "http://www.w3.org/Graphics/SVG/1.1/DTD/svg11.dtd"><svg t="1626229589820" class="icon" viewBox="0 0 1024 1024" version="1.1" xmlns="http://www.w3.org/2000/svg" p-id="1040" width="64" height="64" xmlns:xlink="http://www.w3.org/1999/xlink"><defs><style type="text/css"></style></defs><path d="M179.879663 0.00024h498.23941599l249.03970801 255.9997v682.6392a86.079899 86.079899 0 0 1-23.999972 60.319929 81.67990399 81.67990399 0 0 1-59.039931 25.039971h-663.99922202A81.91990399 81.91990399 0 0 1 120.839732 999.039069a86.399899 86.399899 0 0 1-23.999972-60.399929V85.36014a86.399899 86.399899 0 0 1 23.999972-60.319929A81.67990399 81.67990399 0 0 1 179.879663 0.00024z" fill="#5ACC9B" p-id="1041"></path><path d="M678.11907899 0.00024l249.03970801 255.9997H760.83898199a84.239901 84.239901 0 0 1-82.799903-85.3599V0.00024z" fill="#FFFFFF" fill-opacity=".5" p-id="1042"></path><path d="M259.15956999 484.239673h67.51992101C368.839441 484.239673 400.839404 495.999659 400.839404 534.39961401a46.31994601 46.31994601 0 0 1-27.839968 44.07994798v1.35999901a46.39994599 46.39994599 0 0 1 38.319955 47.999943C410.99939199 669.19945599 376.839432 687.99943401 331.879485 687.99943401h-72.71991501z m64.47992402 82.959902c25.91997001 0 37.199956-10.479988 37.19995699-26.719968 0-17.919979-12.15998599-25.119971-36.63995699-25.119971h-23.999972v51.839939z m4.63999499 89.59989501c27.839967 0 43.03994999-9.919988 43.03994901-31.19996301 0-19.839977-14.879983-28.079967-43.03994901-28.079967h-28.39996699v59.27993001zM474.35931799 484.239673h40.799952V687.99943401h-40.799952zM592.839179 484.239673h41.59995099l59.35993001 108.559872 20.399977 44.15994899h1.359998c-2.239997-21.27997501-5.27999401-47.999944-5.279994-71.43991698V484.239673h38.639955V687.99943401h-41.359952L648.839113 579.039561l-20.95997501-43.839948h-1.35999899c1.91999801 22.07997401 4.95999401 47.999944 4.959994 71.119916V687.99943401H592.839179z" fill="#FFFFFF" p-id="1043"></path></svg>