<svg id="图层_1" data-name="图层 1" xmlns="http://www.w3.org/2000/svg" viewBox="0 0 50.51 50.19"><defs><style>.cls-1{fill:#050001;}.cls-2{fill:none;stroke:#050001;stroke-miterlimit:10;stroke-width:0.5px;}</style></defs><title>光传输单板实图</title><path class="cls-1" d="M44.1,28.76c-.68-4.3-4.71-6.88-9.74-6.32-2.1.23-5.82,2-6.28.88-.8-3.77,3.9-4.86,7.33-5,4.46-.22,6-2.78,3.78-6.64C36.87,7.51,31.05,5,27.26,6.52S21.74,12.34,22.93,18c.31,1.45,1.72,3.38-.56,4-1.7.46-2.82-1.23-3.25-2.94A27.91,27.91,0,0,1,18.31,15c-.45-4.85-3.08-6.09-7.18-3.31S5,19.72,6.93,23.35c2.44,4.64,6.61,5,11.17,4,1.47-.33,3.45-1.72,4,.63.37,1.57-1.35,2.63-3,3.26A13,13,0,0,1,15,32c-4.55.23-5.86,2.67-3.64,6.61,2.34,4.14,8.26,6.56,12,4.89,4.21-1.87,6.59-6.79,4.42-12.55-.19-1-1.46-2.35-.24-2.9s2.19.36,2.76,1.18a9.23,9.23,0,0,1,1.65,6.55c-.32,3.13,1.43,4.64,4.67,4.05,4.24-.78,8.22-6.63,7.53-11.08Zm-19-2a1.66,1.66,0,1,1,1.65-1.66,1.66,1.66,0,0,1-1.65,1.66Z"/><circle class="cls-2" cx="25.07" cy="25.08" r="24.37"/></svg>